<?xml version="1.0" encoding="UTF-8"?>
<svg height="154px" viewBox="0 0 467 154" version="1.1" xmlns="http://www.w3.org/2000/svg" xmlns:xlink="http://www.w3.org/1999/xlink">
    <!-- Generator: Sketch 46.2 (44496) - http://www.bohemiancoding.com/sketch -->
    <title>blockmark.tonic.467x154</title>
    <desc>Created with Sketch.</desc>
    <defs></defs>
    <g id="_exports" stroke="none" stroke-width="1" fill="none" fill-rule="evenodd">
        <g id="blockmark.tonic.467x154">
            <path d="M196.97,97 L196.97,89.74 L179.59,89.74 L179.59,58.005 L172,58.005 L172,97 L196.97,97 Z M254.005,97 L254.005,81.82 L268.13,81.82 L268.13,74.835 L253.95,74.835 L253.95,65.21 L271,65.21 L271,58.005 L246.36,58.005 L246.36,97 L254.005,97 Z M287.115,91.17 C290.69,91.17 293.99,88.585 293.99,83.47 C293.99,78.355 290.69,75.77 287.115,75.77 C283.54,75.77 280.24,78.355 280.24,83.47 C280.24,88.53 283.54,91.17 287.115,91.17 Z M287.115,69.115 C295.2,69.115 301.305,75.11 301.305,83.47 C301.305,91.775 295.2,97.825 287.115,97.825 C279.03,97.825 272.925,91.775 272.925,83.47 C272.925,75.11 279.03,69.115 287.115,69.115 Z M325.68,97 L332.665,97 C332.555,96.065 332.39,94.195 332.39,92.105 L332.39,69.94 L325.075,69.94 L325.075,85.67 C325.075,88.805 322.205,91.005 318.96,91.005 C315.55,91.005 314.01,88.585 314.01,85.56 L314.01,69.94 L306.695,69.94 L306.695,87.045 C306.695,92.93 310.435,97.715 316.98,97.715 C319.84,97.715 323.975,96.615 325.46,94.085 C325.46,95.185 325.57,96.45 325.68,97 Z M346.515,97 L339.2,97 L339.2,57.18 L346.515,57.18 L346.515,97 Z M369.596823,62.3266795 L360.545,66.4 L360.545,62.632928 C360.545,60.6653754 361.698923,58.8807346 363.493177,58.0733205 L372.545,54 L372.545,57.767072 C372.545,59.7346246 371.391077,61.5192654 369.596823,62.3266795 Z M375.769543,94.2200279 C373.600089,96.3262444 370.476569,97.71 366.515,97.71 C359.09,97.71 352.545,92.375 352.545,83.245 C352.545,74.61 358.925,69 365.855,69 C374.215,69 379.22,74.335 379.22,83.025 C379.22,84.07 379.11,85.17 379.11,85.28 L359.75,85.28 C359.915,88.855 362.94,91.44 366.57,91.44 C368.448736,91.44 369.860013,90.9224561 370.895812,90.0529337 L375.769543,94.2200279 Z M359.915,80.275 L372.015,80.275 C371.905,77.58 370.145,74.94 365.965,74.94 C362.17,74.94 360.08,77.8 359.915,80.275 Z M405.769543,94.2200279 C403.600089,96.3262444 400.476569,97.71 396.515,97.71 C389.09,97.71 382.545,92.375 382.545,83.245 C382.545,74.61 388.925,69 395.855,69 C404.215,69 409.22,74.335 409.22,83.025 C409.22,84.07 409.11,85.17 409.11,85.28 L389.75,85.28 C389.915,88.855 392.94,91.44 396.57,91.44 C398.448736,91.44 399.860013,90.9224561 400.895812,90.0529337 L405.769543,94.2200279 Z M389.915,80.275 L402.015,80.275 C401.905,77.58 400.145,74.94 395.965,74.94 C392.17,74.94 390.08,77.8 389.915,80.275 Z M227.885,97.0199878 L220.735,97.0199878 L220.735,94.3249878 C219.47,96.3599878 216.775,97.6799878 213.2,97.6799878 C205.5,97.6799878 200,91.5749878 200,83.4349878 C200,75.5149878 205.115,69.2999878 212.98,69.2999878 C217.71,69.2999878 220.13,71.5549878 220.9,73.0949878 L220.9,69.9599878 L227.885,69.9599878 L227.885,97.0199878 Z M207.37,83.4349878 C207.37,88.2749878 210.34,91.1349878 214.08,91.1349878 C217.82,91.1349878 220.79,88.2749878 220.79,83.4349878 C220.79,78.5949878 217.82,75.8449878 214.08,75.8449878 C210.34,75.8449878 207.37,78.5949878 207.37,83.4349878 Z" id="Combined-Shape" fill="#DDFF31"></path>
            <polygon id="shape-center" fill="#DDFF31" opacity="0.6" points="57 87.25 115 62 115 101 57 101"></polygon>
            <path d="M113,99 C114.104569,99 115,99.8954305 115,101 C115,101.934666 114.349998,102.620003 113.5,103 L57,128 L57,77.9949236 C57,62.1873749 66.3093408,47.8625152 80.7544614,41.4424616 L147,12 L147,24.0203267 C147,39.8200984 137.699707,54.139437 123.265135,60.5640726 L60.6465129,88.434789 C59.1034597,88.9895541 58,90.4659121 58,92.1999969 C58,94.4091359 59.790861,96.1999969 62,96.1999969 C62.2415008,96.1999969 79.2415008,97.1333313 113,99 Z" id="shape" fill="#DDFF31"></path>
            <rect id="safezone" fill-opacity="0" fill="#33B7FF" x="0" y="0" width="467" height="154"></rect>
        </g>
    </g>
</svg>
