<?xml version="1.0" encoding="UTF-8"?>
<svg width="238px" height="44px" viewBox="0 0 238 44" version="1.1" xmlns="http://www.w3.org/2000/svg" xmlns:xlink="http://www.w3.org/1999/xlink">
    <!-- Generator: Sketch 49.1 (51147) - http://www.bohemiancoding.com/sketch -->
    <title>Combined-Shape</title>
    <desc>Created with Sketch.</desc>
    <defs></defs>
    <g id="Page-1" stroke="none" stroke-width="1" fill="none" fill-rule="evenodd">
        <g id="lafoulee-tonic" fill="#DDFF31" fill-rule="nonzero">
            <path d="M24.97,43 L24.97,35.74 L7.59,35.74 L7.59,4.005 L0,4.005 L0,43 L24.97,43 Z M82.005,43 L82.005,27.82 L96.13,27.82 L96.13,20.835 L81.95,20.835 L81.95,11.21 L99,11.21 L99,4.005 L74.36,4.005 L74.36,43 L82.005,43 Z M115.115,37.17 C118.69,37.17 121.99,34.585 121.99,29.47 C121.99,24.355 118.69,21.77 115.115,21.77 C111.54,21.77 108.24,24.355 108.24,29.47 C108.24,34.53 111.54,37.17 115.115,37.17 Z M115.115,15.115 C123.2,15.115 129.305,21.11 129.305,29.47 C129.305,37.775 123.2,43.825 115.115,43.825 C107.03,43.825 100.925,37.775 100.925,29.47 C100.925,21.11 107.03,15.115 115.115,15.115 Z M153.68,43 L160.665,43 C160.555,42.065 160.39,40.195 160.39,38.105 L160.39,15.94 L153.075,15.94 L153.075,31.67 C153.075,34.805 150.205,37.005 146.96,37.005 C143.55,37.005 142.01,34.585 142.01,31.56 L142.01,15.94 L134.695,15.94 L134.695,33.045 C134.695,38.93 138.435,43.715 144.98,43.715 C147.84,43.715 151.975,42.615 153.46,40.085 C153.46,41.185 153.57,42.45 153.68,43 Z M174.515,43 L167.2,43 L167.2,3.18 L174.515,3.18 L174.515,43 Z M197.596823,8.3266795 L188.545,12.4 L188.545,8.632928 C188.545,6.6653754 189.698923,4.8807346 191.493177,4.0733205 L200.545,-7.10542736e-15 L200.545,3.767072 C200.545,5.7346246 199.391077,7.5192654 197.596823,8.3266795 Z M203.769543,40.2200279 C201.600089,42.3262444 198.476569,43.71 194.515,43.71 C187.09,43.71 180.545,38.375 180.545,29.245 C180.545,20.61 186.925,15 193.855,15 C202.215,15 207.22,20.335 207.22,29.025 C207.22,30.07 207.11,31.17 207.11,31.28 L187.75,31.28 C187.915,34.855 190.94,37.44 194.57,37.44 C196.448736,37.44 197.860013,36.9224561 198.895812,36.0529337 L203.769543,40.2200279 Z M187.915,26.275 L200.015,26.275 C199.905,23.58 198.145,20.94 193.965,20.94 C190.17,20.94 188.08,23.8 187.915,26.275 Z M233.769543,40.2200279 C231.600089,42.3262444 228.476569,43.71 224.515,43.71 C217.09,43.71 210.545,38.375 210.545,29.245 C210.545,20.61 216.925,15 223.855,15 C232.215,15 237.22,20.335 237.22,29.025 C237.22,30.07 237.11,31.17 237.11,31.28 L217.75,31.28 C217.915,34.855 220.94,37.44 224.57,37.44 C226.448736,37.44 227.860013,36.9224561 228.895812,36.0529337 L233.769543,40.2200279 Z M217.915,26.275 L230.015,26.275 C229.905,23.58 228.145,20.94 223.965,20.94 C220.17,20.94 218.08,23.8 217.915,26.275 Z M55.885,43.0199878 L48.735,43.0199878 L48.735,40.3249878 C47.47,42.3599878 44.775,43.6799878 41.2,43.6799878 C33.5,43.6799878 28,37.5749878 28,29.4349878 C28,21.5149878 33.115,15.2999878 40.98,15.2999878 C45.71,15.2999878 48.13,17.5549878 48.9,19.0949878 L48.9,15.9599878 L55.885,15.9599878 L55.885,43.0199878 Z M35.37,29.4349878 C35.37,34.2749878 38.34,37.1349878 42.08,37.1349878 C45.82,37.1349878 48.79,34.2749878 48.79,29.4349878 C48.79,24.5949878 45.82,21.8449878 42.08,21.8449878 C38.34,21.8449878 35.37,24.5949878 35.37,29.4349878 Z" id="Combined-Shape"></path>
        </g>
    </g>
</svg>