<?xml version="1.0" encoding="UTF-8"?>
<svg width="375px" height="204px" viewBox="0 0 375 204" version="1.1" xmlns="http://www.w3.org/2000/svg" xmlns:xlink="http://www.w3.org/1999/xlink">
    <!-- Generator: Sketch 49.2 (51160) - http://www.bohemiancoding.com/sketch -->
    <title>original_Rectangle 15_51096392</title>
    <desc>Created with Sketch.</desc>
    <defs>
        <linearGradient x1="50%" y1="0%" x2="50%" y2="100%" id="linearGradient-1">
            <stop stop-color="#264A43" offset="0%"></stop>
            <stop stop-color="#0A3029" offset="100%"></stop>
        </linearGradient>
    </defs>
    <g id="Draft" stroke="none" stroke-width="1" fill="none" fill-rule="evenodd" opacity="0.599999964">
        <g id="draft----list-with-detail-overlay" transform="translate(0.000000, -463.000000)" fill="url(#linearGradient-1)">
            <path d="M29.674421,505.51788 L106.893684,557.95896 C114.062035,562.827124 123.61601,562.228595 130.120746,556.503852 L156.356091,533.414425 C164.23329,526.481793 176.23903,527.247515 183.171663,535.124714 C183.800295,535.838997 184.374383,536.599493 184.88908,537.399784 L207.385779,572.379356 C213.061925,581.205058 224.817997,583.758278 233.643699,578.082131 C237.168529,575.815178 239.844953,572.446434 241.256302,568.500347 L274.6731,475.068075 C277.89993,466.045962 287.829661,461.347958 296.851773,464.574788 C302.401235,466.559597 306.563555,471.225956 307.903878,476.965252 L313.932677,502.780719 C316.319039,512.999179 326.537267,519.34835 336.755727,516.961988 C339.916988,516.223725 342.836367,514.687791 345.235377,512.500704 L348.149414,509.844085 C354.696929,503.874961 364.84367,504.343839 370.812794,510.891354 C373.506714,513.846307 375,517.700791 375,521.69941 L375,659.470001 C375,663.888279 371.418278,667.470001 367,667.470001 L8,667.470001 C3.581722,667.470001 5.41083001e-16,663.888279 0,659.470001 L3.55271368e-15,521.235918 C2.26764155e-15,510.742508 8.50658975,502.235918 19,502.235918 C22.8065686,502.235918 26.5253793,503.379305 29.674421,505.51788 Z" id="original_Rectangle-15_51096392"></path>
        </g>
    </g>
</svg>